<svg viewBox="0 0 3000 3000" xmlns="http://www.w3.org/2000/svg" fill-rule="evenodd" clip-rule="evenodd" stroke-linejoin="round" stroke-miterlimit="2"><path fill="#125969" d="M0 0h3000v3000H0z"/><path d="M1412.7 1961a112.5 112.5 0 0 0-194.7 112.3l328.6 569.2a112.5 112.5 0 0 0 194.7-112.4l-328.6-569.2z" fill="#c06754"/><circle cx="2515.6" cy="1500" r="265.4" fill="#c06754" transform="rotate(-30 1550 1836.4) scale(.99853)"/><path d="M418.3 2098.8c-104.5-181-73.3-394.8 69.6-477.3L608 1552c513.3-340 826.7-715.6 1098.1-1226.8.9-2 11-15.6 16.5-18.8 22.7-13 54.5-.4 71 28.3l840 1454.9c16.6 28.7 11.7 62.6-11 75.6a75.9 75.9 0 0 1-24.5 5c-578.5-20.7-1060.4 63-1611.5 337.6l-120.2 69.4c-143 82.5-343.8 2.5-448.2-178.5z" fill="#b1422b"/></svg>